<svg xmlns="http://www.w3.org/2000/svg" viewBox="0 0 767.48 672.75"><defs><style>.cls-1{fill:#d8d8d8;}.cls-2{fill:#039;}</style></defs><g id="Layer_2" data-name="Layer 2"><g id="Layer_6" data-name="Layer 6"><rect class="cls-1" width="767.48" height="672.75" rx="114.93"/><path class="cls-2" d="M700.86,578.07c-.8-.05-1.6-.14-2.41-.14q-71.13,0-142.26.07c-3.81,0-6.58-1.55-9.34-3.72-4.87-3.83-7.49-9.21-9.88-14.65a74.5,74.5,0,0,1-4.34-12.55c-2.22-9.24-4.55-18.49-5.91-27.88-1.67-11.49-4.49-22.71-6.78-34.05-1.71-8.46-3.71-16.87-5.74-25.26-1.88-7.78-4.29-15.44-5.88-23.27-1.5-7.38-4.46-14.3-6.23-21.55-1.65-6.76-4.19-13.16-6.47-19.67-2.44-6.94-4.49-14-7.09-20.89-2.86-7.54-6.14-14.91-9.23-22.36s-6.19-15.12-9.41-22.63c-2.45-5.72-5.1-11.34-7.64-17-3.59-8-7.11-16.12-10.74-24.14s-7.19-15.72-10.83-23.56c-.66-1.4-1.51-2.72-2.25-4.09-3.34-6.24-6.49-12.61-10.09-18.7-2.69-4.55-5.93-8.79-9-13.12-1.53-2.16-3.19-4.23-4.86-6.28-3.18-3.87-6.34-7.77-9.66-11.54-2.32-2.63-4.86-5.08-7.33-7.57-2.32-2.34-4.61-4.72-7-6.95-7.05-6.47-14.12-12.93-21.29-19.27-4.1-3.63-8.35-7.1-12.62-10.53-6.56-5.27-13.21-10.44-19.81-15.68s-13.39-10.58-20-16c-7.16-5.83-14.19-11.81-21.33-17.65-5.18-4.24-10.46-8.34-15.66-12.53-2.61-2.1-5.06-4.41-7.75-6.39q-8.14-6-16.49-11.7c-3.51-2.4-7.13-4.66-10.79-6.83-5.31-3.16-11.18-4.76-17.2-5.84a4,4,0,0,0-.82.14c-.21,3.37-.59,6.81-.6,10.24q-.24,67.14-.38,134.27-.18,78.49-.38,157c0,16.53-.22,33.07-.34,49.61q-.16,24.19-.34,48.39-.18,24.56-.35,49.09-.15,21.42-.33,42.85a16.44,16.44,0,0,1-3.81,10.88,3.84,3.84,0,0,1-2.59,1.24q-74.17.09-148.34.08c-1.48,0-1.84-.48-1.83-1.88.06-8,.08-16.08,0-24.12,0-1.74.42-2.23,2.2-2.23q59.52.07,119,0c2.61,0,2.62,0,2.62-2.65,0-11.34,0-22.67.1-34q.13-25,.34-50,.18-24.21.34-48.4c.13-20.81.29-41.63.35-62.45q.22-71.39.36-142.77.15-62.53.37-125.07c0-5.88.67-11.76,1.24-17.61A114.86,114.86,0,0,1,196.21,53c1.84-8.29,6.13-14.69,15-16.84,4.95-1.2,9.92-1,14.26,1.72a33,33,0,0,0,11.74,4.19c9.07,1.67,17.35,5.37,25.28,9.94,2.64,1.53,5.41,2.86,8,4.53q6,3.94,11.74,8.25c7.54,5.62,15.06,11.27,22.48,17,3.6,2.8,6.9,6,10.41,8.87,6.27,5.17,12.59,10.27,18.89,15.42,5.44,4.44,10.82,9,16.31,13.34s11.06,8.51,16.51,12.86q8.58,6.85,17,13.93c5.26,4.41,10.42,8.94,15.6,13.44,3.49,3,7,6,10.41,9.11,2.21,2,4.34,4.13,6.39,6.31,7.05,7.47,14.25,14.83,21,22.56,4.24,4.84,7.86,10.23,11.64,15.47a205.75,205.75,0,0,1,11.65,18.57c5.91,10.33,10.94,21.07,16.08,31.76,3,6.17,5.48,12.56,8.19,18.85.09.21.15.44.24.65,3.05,6.58,6.19,13.12,9.14,19.75,3.14,7.05,6.08,14.18,9.16,21.26,1.53,3.54,3.3,7,4.75,10.57,4.32,10.62,8.7,21.22,12.74,31.94,3,8,5.48,16.14,8.23,24.21.87,2.56,1.95,5.06,2.75,7.65,2.48,8,5,15.93,7.25,24,2.32,8.32,4.42,16.7,6.46,25.09,2.16,8.89,4.24,17.81,6.15,26.76,2.36,11,5.07,22,6.6,33.2,1.43,10.44,4.26,20.52,6.36,30.78a36.89,36.89,0,0,0,1.53,5.82c1.69,4.44,1.5,4,6.33,4.35s9.6.06,14.4.06c12.61,0,25.24-.5,37.81.11,24.74,1.22,49.46.16,74.18.58.69,0,1.38-.09,2.06-.14Z"/></g></g></svg>